<?xml version="1.0" encoding="utf-8"?>
<!-- Svg Vector Icons : http://www.onlinewebfonts.com/icon -->
<!DOCTYPE svg PUBLIC "-//W3C//DTD SVG 1.1//EN" "http://www.w3.org/Graphics/SVG/1.1/DTD/svg11.dtd">
<svg version="1.1" xmlns="http://www.w3.org/2000/svg" xmlns:xlink="http://www.w3.org/1999/xlink" x="0px" y="0px" viewBox="0 0 1000 1000" enable-background="new 0 0 1000 1000" xml:space="preserve">
<g><g transform="translate(0.000000,511.000000) scale(0.100000,-0.100000)"><path fill="#2FB47D" d="M8602.6,3676.7c-721.4-35.3-735.9-37.4-783.7-85.2c-25-27-54.1-74.9-60.3-106c-12.5-49.9,6.2-79,158-239.1c95.6-99.8,232.8-241.1,307.7-311.8l137.2-128.9L6604.8,1049C5638.1,82.4,4839.8-709.7,4827.3-709.7s-492.7,474-1070.6,1051.9C3052,1049,2679.9,1406.6,2623.7,1433.6c-93.5,43.6-187.1,49.9-274.4,18.7C2272.4,1423.2,164.4-680.6,127-765.8c-39.5-91.5-35.3-187.1,10.4-286.9c45.7-97.7,195.4-247.4,278.6-278.6c74.8-29.1,203.7-29.1,278.6-2.1c31.2,12.5,447,409.5,920.9,883.5l862.7,862.7L3538.4-649.4c711-713,1087.2-1074.8,1143.4-1101.8c106-49.9,185-49.9,291,0c56.1,27,692.3,648.6,2026.9,1985.3c1068.6,1070.6,1952.1,1945.8,1964.5,1945.8c10.4,0,151.8-133,316-293.1c282.7-280.6,299.3-293.1,361.7-280.6c174.6,35.3,176.7,43.7,226.6,1068.5c39.5,802.5,39.5,904.3,12.5,958.4c-16.6,31.2-47.8,64.4-64.4,72.8C9764.7,3724.5,9417.5,3716.2,8602.6,3676.7z"/></g></g>
</svg>