
<svg xmlns="http://www.w3.org/2000/svg" width="100" height="100">
	<defs>
		<style>.a{fill:none;}.b{fill:#2386de;}</style>
	</defs>
	<g transform="translate(50,50)">
		<circle cx="0" cy="0" r="25" style="fill: rgb(232, 243, 252);"></circle>
		<path class="b" d="
			M8,7
			H20
			a1,1,0,0,0,0-2
			H8
			A1,1,0,0,0,8,7
			Z

			M20,17
			H8
			a1,1,0,0,0,0,2
			H20
			a1,1,0,0,0,0-2
			Z

			m0-6
			H8
			a1,1,0,0,0,0,2
			H20
			a1,1,0,0,0,0-2
			Z

			M4.5,16
			h-2
			a.5.5,0,0,0,0,1
			H4
			v.5
			H3.5
			a.5.5,0,0,0,0,1
			H4
			V19
			H2.5
			a.5.5,0,0,0,0,1
			h2
			a.5.5,0,0,0,.5-.5
			v-3
			A.5.5,0,0,0,4.5,16
			Z

			M2.5,5
			H3
			V7.5
			a.5.5,0,0,0,1,0v-3
			A.5.5,0,0,0,3.5,4
			h-1
			a.5.5,0,0,0,0,1
			Z

			m2,5
			h-2a.5.5,0,0,0,0,1
			H3.8
			L2.12,12.96
			a.49.49,0,0,0-.12.32
			v.22
			a.5.5,0,0,0,.5.5
			h2
			a.5.5,0,0,0,0-1
			H3.2l1.68-1.96
			A.49.49,0,0,0,5,10.72
			V10.5
			A.5.5,0,0,0,4.5,10
			Z
			"/>
	</g>
</svg>